<?xml version="1.0" encoding="UTF-8" standalone="no"?><!DOCTYPE svg PUBLIC "-//W3C//DTD SVG 1.1//EN" "http://www.w3.org/Graphics/SVG/1.1/DTD/svg11.dtd"><svg width="100%" height="100%" viewBox="0 0 2271 1467" version="1.1" xmlns="http://www.w3.org/2000/svg" xmlns:xlink="http://www.w3.org/1999/xlink" xml:space="preserve" xmlns:serif="http://www.serif.com/" style="fill-rule:evenodd;clip-rule:evenodd;stroke-linecap:round;stroke-linejoin:round;stroke-miterlimit:10;"><g id="Layer_2"><g><g><path d="M93.25,1326.04l20,-44.209c-15.292,7.292 -25.208,7.875 -40.208,0l20.208,44.209Z" style="fill:#17154b;fill-rule:nonzero;stroke:#17154b;stroke-width:12.5px;"/><path d="M93.167,523.208l-0,764.292" style="fill:none;fill-rule:nonzero;stroke:#17154b;stroke-width:12.5px;"/></g><g><circle cx="93.167" cy="438.792" r="83.083" style="fill:none;stroke:#17154b;stroke-width:12.5px;"/><g><path d="M56.5,438.792l73.292,-0" style="fill:none;fill-rule:nonzero;stroke:#f15a29;stroke-width:12.5px;"/></g></g></g><g><g><path d="M2160.38,305.917l-23.958,52.916c18.333,-8.708 30.166,-9.416 48.125,0l-24.167,-52.916Z" style="fill:#17154b;fill-rule:nonzero;stroke:#17154b;stroke-width:12.5px;"/><path d="M2160.5,1132.67l0,-780.625" style="fill:none;fill-rule:nonzero;stroke:#17154b;stroke-width:12.5px;"/></g><g><circle cx="2160.5" cy="1233.62" r="99.417" style="fill:none;stroke:#17154b;stroke-width:12.5px;"/><g><path d="M2160.5,1189.79l0,87.708" style="fill:none;fill-rule:nonzero;stroke:#f15a29;stroke-width:12.5px;"/><path d="M2204.33,1233.62l-87.666,0" style="fill:none;fill-rule:nonzero;stroke:#f15a29;stroke-width:12.5px;"/></g></g></g><g><g><g><g><g><g><rect x="1246.38" y="1173.42" width="125" height="87.75" style="fill:none;"/></g><rect x="1304.46" y="1179.92" width="12.5" height="16.292" style="fill:#d0e3ed;"/><rect x="1304.46" y="1209.12" width="12.5" height="16.292" style="fill:#d0e3ed;"/><rect x="1304.46" y="1238.25" width="12.5" height="16.292" style="fill:#d0e3ed;"/></g></g><g><g><g><rect x="1246.38" y="1085.62" width="125" height="87.75" style="fill:none;"/></g><rect x="1304.46" y="1092.12" width="12.5" height="16.292" style="fill:#d0e3ed;"/><rect x="1304.46" y="1121.33" width="12.5" height="16.292" style="fill:#d0e3ed;"/><rect x="1304.46" y="1150.46" width="12.5" height="16.292" style="fill:#d0e3ed;"/></g></g><g><g><g><rect x="1371.38" y="960.667" width="121.125" height="125" style="fill:none;"/></g><rect x="1461.08" y="1018.75" width="22.5" height="12.5" style="fill:#d0e3ed;"/><rect x="1420.75" y="1018.75" width="22.5" height="12.5" style="fill:#d0e3ed;"/><rect x="1380.54" y="1018.75" width="22.5" height="12.5" style="fill:#d0e3ed;"/></g></g><g><g><g><rect x="1492.54" y="960.667" width="121.125" height="125" style="fill:none;"/></g><rect x="1582.25" y="1018.75" width="22.5" height="12.5" style="fill:#d0e3ed;"/><rect x="1541.92" y="1018.75" width="22.5" height="12.5" style="fill:#d0e3ed;"/><rect x="1501.71" y="1018.75" width="22.5" height="12.5" style="fill:#d0e3ed;"/></g></g><g><g><g><rect x="1613.67" y="960.667" width="121.125" height="125" style="fill:none;"/></g><rect x="1703.38" y="1018.75" width="22.5" height="12.5" style="fill:#d0e3ed;"/><rect x="1663.04" y="1018.75" width="22.5" height="12.5" style="fill:#d0e3ed;"/><rect x="1622.83" y="1018.75" width="22.5" height="12.5" style="fill:#d0e3ed;"/></g></g><g><g><g><rect x="1734.83" y="960.667" width="121.125" height="125" style="fill:none;"/></g><rect x="1824.5" y="1018.75" width="22.5" height="12.5" style="fill:#d0e3ed;"/><rect x="1784.21" y="1018.75" width="22.5" height="12.5" style="fill:#d0e3ed;"/><rect x="1744" y="1018.75" width="22.5" height="12.5" style="fill:#d0e3ed;"/></g></g><g><g><g><rect x="1855.96" y="960.667" width="121.125" height="125" style="fill:none;"/></g><rect x="1945.67" y="1018.75" width="22.5" height="12.5" style="fill:#d0e3ed;"/><rect x="1905.33" y="1018.75" width="22.5" height="12.5" style="fill:#d0e3ed;"/><rect x="1865.12" y="1018.75" width="22.5" height="12.5" style="fill:#d0e3ed;"/></g></g><g><g><g><rect x="1977.08" y="843.333" width="125" height="117.333" style="fill:none;"/></g><rect x="2035.17" y="852" width="12.5" height="21.792" style="fill:#d0e3ed;"/><rect x="2035.17" y="891.042" width="12.5" height="21.792" style="fill:#d0e3ed;"/><rect x="2035.17" y="930" width="12.5" height="21.792" style="fill:#d0e3ed;"/></g></g><g><g><g><rect x="1977.08" y="726" width="125" height="117.333" style="fill:none;"/></g><rect x="2035.17" y="734.667" width="12.5" height="21.792" style="fill:#d0e3ed;"/><rect x="2035.17" y="773.75" width="12.5" height="21.792" style="fill:#d0e3ed;"/><rect x="2035.17" y="812.667" width="12.5" height="21.792" style="fill:#d0e3ed;"/></g></g><g><g><g><rect x="1977.08" y="608.667" width="125" height="117.333" style="fill:none;"/></g><rect x="2035.17" y="617.333" width="12.5" height="21.792" style="fill:#d0e3ed;"/><rect x="2035.17" y="656.417" width="12.5" height="21.792" style="fill:#d0e3ed;"/><rect x="2035.17" y="695.333" width="12.5" height="21.792" style="fill:#d0e3ed;"/></g></g><g><g><g><rect x="1977.08" y="491.375" width="125" height="117.333" style="fill:none;"/></g><rect x="2035.17" y="500.042" width="12.5" height="21.792" style="fill:#d0e3ed;"/><rect x="2035.17" y="539.083" width="12.5" height="21.792" style="fill:#d0e3ed;"/><rect x="2035.17" y="578" width="12.5" height="21.792" style="fill:#d0e3ed;"/></g></g><g><g><g><rect x="1977.08" y="374.042" width="125" height="117.333" style="fill:none;"/></g><rect x="2035.17" y="382.708" width="12.5" height="21.792" style="fill:#d0e3ed;"/><rect x="2035.17" y="421.75" width="12.5" height="21.792" style="fill:#d0e3ed;"/><rect x="2035.17" y="460.708" width="12.5" height="21.792" style="fill:#d0e3ed;"/></g></g><g><g><g><rect x="1977.08" y="256.708" width="125" height="117.333" style="fill:none;"/></g><rect x="2035.17" y="265.375" width="12.5" height="21.792" style="fill:#d0e3ed;"/><rect x="2035.17" y="304.417" width="12.5" height="21.792" style="fill:#d0e3ed;"/><rect x="2035.17" y="343.375" width="12.5" height="21.792" style="fill:#d0e3ed;"/></g></g><g><g><g><rect x="1863.04" y="131.708" width="114.042" height="125" style="fill:none;"/></g><rect x="1871.5" y="186.125" width="21.167" height="12.5" style="fill:#d0e3ed;"/><rect x="1909.46" y="186.125" width="21.167" height="12.5" style="fill:#d0e3ed;"/><rect x="1947.29" y="186.125" width="21.167" height="12.5" style="fill:#d0e3ed;"/></g></g><g><g><g><rect x="1749.04" y="131.708" width="114.042" height="125" style="fill:none;"/></g><rect x="1757.46" y="186.125" width="21.167" height="12.5" style="fill:#d0e3ed;"/><rect x="1795.42" y="186.125" width="21.167" height="12.5" style="fill:#d0e3ed;"/><rect x="1833.25" y="186.125" width="21.167" height="12.5" style="fill:#d0e3ed;"/></g></g><g><g><g><rect x="1635" y="131.708" width="114.042" height="125" style="fill:none;"/></g><rect x="1643.42" y="186.125" width="21.167" height="12.5" style="fill:#d0e3ed;"/><rect x="1681.38" y="186.125" width="21.167" height="12.5" style="fill:#d0e3ed;"/><rect x="1719.21" y="186.125" width="21.167" height="12.5" style="fill:#d0e3ed;"/></g></g><g><g><g><rect x="1520.96" y="131.708" width="114.042" height="125" style="fill:none;"/></g><rect x="1529.38" y="186.125" width="21.167" height="12.5" style="fill:#d0e3ed;"/><rect x="1567.33" y="186.125" width="21.167" height="12.5" style="fill:#d0e3ed;"/><rect x="1605.17" y="186.125" width="21.167" height="12.5" style="fill:#d0e3ed;"/></g></g><g><g><g><rect x="1406.92" y="131.708" width="114.042" height="125" style="fill:none;"/></g><rect x="1415.33" y="186.125" width="21.167" height="12.5" style="fill:#d0e3ed;"/><rect x="1453.29" y="186.125" width="21.167" height="12.5" style="fill:#d0e3ed;"/><rect x="1491.12" y="186.125" width="21.167" height="12.5" style="fill:#d0e3ed;"/></g></g><g><g><g><rect x="1292.88" y="131.708" width="114.042" height="125" style="fill:none;"/></g><rect x="1301.29" y="186.125" width="21.167" height="12.5" style="fill:#d0e3ed;"/><rect x="1339.25" y="186.125" width="21.167" height="12.5" style="fill:#d0e3ed;"/><rect x="1377.08" y="186.125" width="21.167" height="12.5" style="fill:#d0e3ed;"/></g></g><g><g><g><rect x="1178.83" y="131.708" width="114.042" height="125" style="fill:none;"/></g><rect x="1187.25" y="186.125" width="21.167" height="12.5" style="fill:#d0e3ed;"/><rect x="1225.21" y="186.125" width="21.167" height="12.5" style="fill:#d0e3ed;"/><rect x="1263.04" y="186.125" width="21.167" height="12.5" style="fill:#d0e3ed;"/></g></g><g><g><g><rect x="1064.79" y="131.708" width="114.042" height="125" style="fill:none;"/></g><rect x="1073.21" y="186.125" width="21.167" height="12.5" style="fill:#d0e3ed;"/><rect x="1111.17" y="186.125" width="21.167" height="12.5" style="fill:#d0e3ed;"/><rect x="1149.04" y="186.125" width="21.167" height="12.5" style="fill:#d0e3ed;"/></g></g><g><g><g><rect x="950.75" y="131.708" width="114.042" height="125" style="fill:none;"/></g><rect x="959.167" y="186.125" width="21.167" height="12.5" style="fill:#d0e3ed;"/><rect x="997.125" y="186.125" width="21.167" height="12.5" style="fill:#d0e3ed;"/><rect x="1035" y="186.125" width="21.167" height="12.5" style="fill:#d0e3ed;"/></g></g><g><g><g><rect x="836.708" y="131.708" width="114.042" height="125" style="fill:none;"/></g><rect x="845.125" y="186.125" width="21.167" height="12.5" style="fill:#d0e3ed;"/><rect x="883.125" y="186.125" width="21.167" height="12.5" style="fill:#d0e3ed;"/><rect x="920.958" y="186.125" width="21.167" height="12.5" style="fill:#d0e3ed;"/></g></g><g><g><g><rect x="722.667" y="131.708" width="114.042" height="125" style="fill:none;"/></g><rect x="731.083" y="186.125" width="21.167" height="12.5" style="fill:#d0e3ed;"/><rect x="769.083" y="186.125" width="21.167" height="12.5" style="fill:#d0e3ed;"/><rect x="806.917" y="186.125" width="21.167" height="12.5" style="fill:#d0e3ed;"/></g></g><g><g><g><rect x="608.625" y="131.708" width="114.042" height="125" style="fill:none;"/></g><rect x="617.083" y="186.125" width="21.167" height="12.5" style="fill:#d0e3ed;"/><rect x="655.042" y="186.125" width="21.167" height="12.5" style="fill:#d0e3ed;"/><rect x="692.875" y="186.125" width="21.167" height="12.5" style="fill:#d0e3ed;"/></g></g><g><g><g><rect x="494.583" y="131.708" width="114.042" height="125" style="fill:none;"/></g><rect x="503.042" y="186.125" width="21.167" height="12.5" style="fill:#d0e3ed;"/><rect x="541" y="186.125" width="21.167" height="12.5" style="fill:#d0e3ed;"/><rect x="578.833" y="186.125" width="21.167" height="12.5" style="fill:#d0e3ed;"/></g></g><g><g><g><rect x="380.542" y="131.708" width="114.042" height="125" style="fill:none;"/></g><rect x="389" y="186.125" width="21.167" height="12.5" style="fill:#d0e3ed;"/><rect x="426.958" y="186.125" width="21.167" height="12.5" style="fill:#d0e3ed;"/><rect x="464.792" y="186.125" width="21.167" height="12.5" style="fill:#d0e3ed;"/></g></g><g><g><g><rect x="266.542" y="131.708" width="114.042" height="125" style="fill:none;"/></g><rect x="274.958" y="186.125" width="21.167" height="12.5" style="fill:#d0e3ed;"/><rect x="312.917" y="186.125" width="21.167" height="12.5" style="fill:#d0e3ed;"/><rect x="350.75" y="186.125" width="21.167" height="12.5" style="fill:#d0e3ed;"/></g></g><g><g><g><rect x="152.5" y="131.708" width="114.042" height="125" style="fill:none;"/></g><rect x="160.917" y="186.125" width="21.167" height="12.5" style="fill:#d0e3ed;"/><rect x="198.875" y="186.125" width="21.167" height="12.5" style="fill:#d0e3ed;"/><rect x="236.708" y="186.125" width="21.167" height="12.5" style="fill:#d0e3ed;"/></g></g><g><rect x="1303.58" y="1056.21" width="12.542" height="20.833" style="fill:#d0e3ed;"/><path d="M1303.58,1018.71l0,20.834l12.542,-0l0,-8.334l8.292,0l-0,-12.5l-20.834,0Z" style="fill:#d0e3ed;"/><rect x="1341.08" y="1018.71" width="20.833" height="12.5" style="fill:#d0e3ed;"/></g><g><rect x="1985.67" y="1015.92" width="20.833" height="12.542" style="fill:#d0e3ed;"/><path d="M2044.04,1028.46l-20.834,0l0,-12.541l8.334,-0l-0,-8.292l12.5,0l-0,20.833Z" style="fill:#d0e3ed;"/><rect x="2031.54" y="970.125" width="12.5" height="20.833" style="fill:#d0e3ed;"/></g><g><rect x="2032.33" y="227.292" width="12.542" height="20.833" style="fill:#d0e3ed;"/><path d="M2044.92,189.792l-0,20.833l-12.584,0l0,-8.333l-8.25,-0l0,-12.5l20.834,-0Z" style="fill:#d0e3ed;"/><rect x="1986.58" y="189.792" width="20.833" height="12.5" style="fill:#d0e3ed;"/></g></g></g></g><g><path d="M214.042,332.375l1825.54,0" style="fill:none;stroke:#cadfeb;stroke-width:12.5px;"/><path d="M327.917,470.542l1711.67,-0" style="fill:none;stroke:#cadfeb;stroke-width:12.5px;"/><path d="M603.792,608.667l1435.79,-0" style="fill:none;stroke:#cadfeb;stroke-width:12.5px;"/><path d="M702.458,746.833l1337.12,0" style="fill:none;stroke:#cadfeb;stroke-width:12.5px;"/><path d="M803.958,885l1235.62,0" style="fill:none;stroke:#cadfeb;stroke-width:12.5px;"/></g><path d="M78.583,28.417l141.459,317.375l170.791,197.5l104.084,-74.709l352.291,472.334l90.709,-85.375l101.416,120.083l53.375,-53.375l216.167,338.917l315.25,-285.834l48.042,58.709l197.416,-178.042" style="fill:none;fill-rule:nonzero;stroke:#00b2c8;stroke-width:12.5px;"/><path d="M1868.83,857.792l-48,15.333c16.25,6.75 23.584,13.958 27.959,31l20.041,-46.333Z" style="fill:#00b2c8;fill-rule:nonzero;stroke:#00b2c8;stroke-width:12.5px;"/><g><path d="M1309.96,1192.5c-30.958,0 -56.041,24.958 -56.041,55.708c-0,30.75 25.083,55.709 56.041,55.709c30.959,-0 56.042,-24.959 56.042,-55.709c-0.042,-30.75 -25.125,-55.708 -56.042,-55.708" style="fill:#f78a7e;"/><path d="M1343.54,1248.21c-0,18.459 -15.042,33.417 -33.625,33.417c-18.542,0 -33.625,-15 -33.625,-33.417c-0,-18.458 15.083,-33.416 33.625,-33.416c18.583,-0 33.625,14.958 33.625,33.416Z" style="fill:#fff;"/></g><g><path d="M93.167,6.125c-30.959,0 -56.042,24.958 -56.042,55.708c-0,30.75 25.083,55.709 56.042,55.709c30.958,-0 56.041,-24.959 56.041,-55.709c-0.041,-30.75 -25.125,-55.708 -56.041,-55.708" style="fill:#1cb2c6;"/><path d="M126.75,61.833c-0,18.459 -15.042,33.417 -33.625,33.417c-18.542,0 -33.625,-15 -33.625,-33.417c0,-18.458 15.083,-33.416 33.625,-33.416c18.583,-0 33.625,15 33.625,33.416Z" style="fill:#fff;"/></g><g><path d="M1309.92,1354.67l-0,89.333" style="fill:none;fill-rule:nonzero;stroke:#cadfeb;stroke-width:12.5px;"/><path d="M1385.21,1323.5l63.167,63.167" style="fill:none;fill-rule:nonzero;stroke:#cadfeb;stroke-width:12.5px;"/><path d="M1416.38,1248.21l89.333,0" style="fill:none;fill-rule:nonzero;stroke:#cadfeb;stroke-width:12.5px;"/><path d="M1234.67,1323.5l-63.167,63.167" style="fill:none;fill-rule:nonzero;stroke:#cadfeb;stroke-width:12.5px;"/><path d="M1203.5,1248.21l-89.333,0" style="fill:none;fill-rule:nonzero;stroke:#cadfeb;stroke-width:12.5px;"/></g><g><g><path d="M613.25,369.875c5.208,0 9.417,-4.208 9.417,-9.417l-0,-109.958c-0,-5.208 -4.209,-9.417 -9.417,-9.417l-162.208,0c-5.209,0 -9.417,4.209 -9.417,9.417l0,109.958c0,5.209 4.208,9.417 9.417,9.417l15.416,-0l28.292,53.792l28.292,-53.792l90.208,0" style="fill:#fff;fill-rule:nonzero;stroke:#17154b;stroke-width:12.5px;"/></g></g><g><g><path d="M1055.17,773.542c5.208,-0 9.416,-4.209 9.416,-9.417l0,-109.958c0,-5.209 -4.208,-9.417 -9.416,-9.417l-162.209,0c-5.208,0 -9.416,4.208 -9.416,9.417l-0,109.958c-0,5.208 4.208,9.417 9.416,9.417l15.417,-0l28.292,53.791l28.291,-53.791l90.209,-0" style="fill:#fff;fill-rule:nonzero;stroke:#17154b;stroke-width:12.5px;"/></g></g><g><g><path d="M1741.04,859.833c5.208,0 9.416,-4.208 9.416,-9.416l0,-109.959c0,-5.208 -4.208,-9.416 -9.416,-9.416l-162.209,-0c-5.208,-0 -9.416,4.208 -9.416,9.416l-0,109.959c-0,5.208 4.208,9.416 9.416,9.416l15.417,0l28.292,53.792l28.291,-53.792l90.209,0" style="fill:#fff;fill-rule:nonzero;stroke:#17154b;stroke-width:12.5px;"/></g><g><g><path d="M1602.96,819.167l42.75,-42.75l28.25,28.208l24.375,-24.375" style="fill:none;fill-rule:nonzero;stroke:#f15a29;stroke-width:12.5px;"/><g><path d="M1713.83,764.625l-25.916,9.833c9.125,3.209 13.375,6.959 16.25,16.209l9.666,-26.042Z" style="fill:#f15a29;fill-rule:nonzero;stroke:#f15a29;stroke-width:12.5px;"/></g></g></g></g><path d="M532.167,339.375l-40,-56.542l79.958,0l-39.958,56.542" style="fill:none;fill-rule:nonzero;stroke:#00b2c8;stroke-width:12.5px;"/><g><path d="M1800.08,138.125l107.709,0c31,0 56.083,25.125 56.083,56.083c0,31 -25.125,56.084 -56.083,56.084l-107.709,-0c-31,-0 -56.083,-25.125 -56.083,-56.084c0,-30.958 25.125,-56.083 56.083,-56.083Z" style="fill:#fff;fill-rule:nonzero;stroke:#17154b;stroke-width:12.5px;"/><circle cx="1906.83" cy="194.208" r="35" style="fill:#00b2c8;"/></g><rect x="947.25" y="680.208" width="53.708" height="53.708" style="fill:none;stroke:#00b2c8;stroke-width:12.5px;"/><g><rect x="269.917" y="1038.12" width="352.75" height="78.583" style="fill:none;stroke:#cadfeb;stroke-width:12.5px;"/><rect x="269.917" y="880.958" width="222.75" height="78.583" style="fill:none;stroke:#cadfeb;stroke-width:12.5px;"/></g></g></svg>