<svg width="552" height="356" viewBox="0 0 552 356" fill="none" xmlns="http://www.w3.org/2000/svg">
    <path d="M161.086 1.74146V60.8446" stroke="#CADFEB" stroke-width="3.2" stroke-miterlimit="10" stroke-linecap="round" stroke-linejoin="round"/>
    <path d="M237.719 1.74146V60.8446" stroke="#CADFEB" stroke-width="3.2" stroke-miterlimit="10" stroke-linecap="round" stroke-linejoin="round"/>
    <path d="M314.363 1.74146V60.8446" stroke="#CADFEB" stroke-width="3.2" stroke-miterlimit="10" stroke-linecap="round" stroke-linejoin="round"/>
    <path d="M391.01 1.74146V60.8446" stroke="#CADFEB" stroke-width="3.2" stroke-miterlimit="10" stroke-linecap="round" stroke-linejoin="round"/>
    <path d="M84.4414 48.5526C124.208 48.5526 131.179 22.581 161.087 22.581C190.996 22.581 206.06 46.7735 237.733 46.7735C269.407 46.7735 286.25 28.5599 314.379 28.5599C342.509 28.5599 363.45 40.7946 391.025 40.7946C418.601 40.7946 438.317 13.0002 467.671 13.0002" stroke="#00B2C8" stroke-width="3.2" stroke-miterlimit="10" stroke-linecap="round" stroke-linejoin="round"/>
    <path d="M7.79492 171.265L84.4409 225.381L237.718 112.177L467.642 253.394L544.288 204.892" stroke="#CADFEB" stroke-width="3.2" stroke-miterlimit="10" stroke-linecap="round" stroke-linejoin="round"/>
    <path d="M13.1172 241.727H41.0282V353.561H13.1172" stroke="#00B2C8" stroke-width="3.2" stroke-miterlimit="10" stroke-linecap="round" stroke-linejoin="round"/>
    <path d="M117.66 273.823H51.207V353.56H117.66V273.823Z" fill="white" stroke="#F78A7E" stroke-width="3.2" stroke-miterlimit="10" stroke-linecap="round" stroke-linejoin="round"/>
    <path d="M194.304 201.611H127.852V353.561H194.304V201.611Z" stroke="#00B2C8" stroke-width="3.2" stroke-miterlimit="10" stroke-linecap="round" stroke-linejoin="round"/>
    <path d="M270.953 168.828H204.5V353.56H270.953V168.828Z" stroke="#00B2C8" stroke-width="3.2" stroke-miterlimit="10" stroke-linecap="round" stroke-linejoin="round"/>
    <path d="M347.599 217.562H281.146V353.574H347.599V217.562Z" fill="white" stroke="#F78A7E" stroke-width="3.2" stroke-miterlimit="10" stroke-linecap="round" stroke-linejoin="round"/>
    <path d="M424.23 245.023H357.777V353.561H424.23V245.023Z" fill="white" stroke="#F78A7E" stroke-width="3.2" stroke-miterlimit="10" stroke-linecap="round" stroke-linejoin="round"/>
    <path d="M500.877 295.537H434.424V353.576H500.877V295.537Z" fill="white" stroke="#F78A7E" stroke-width="3.2" stroke-miterlimit="10" stroke-linecap="round" stroke-linejoin="round"/>
    <path d="M538.981 353.561H511.07V253.394H538.981" stroke="#00B2C8" stroke-width="3.2" stroke-miterlimit="10" stroke-linecap="round" stroke-linejoin="round"/>
    <path d="M7.79526 177.243C11.0973 177.243 13.7741 174.566 13.7741 171.264C13.7741 167.962 11.0973 165.285 7.79526 165.285C4.49323 165.285 1.81641 167.962 1.81641 171.264C1.81641 174.566 4.49323 177.243 7.79526 177.243Z" stroke="#17154B" stroke-width="3.2" stroke-miterlimit="10" stroke-linecap="round" stroke-linejoin="round"/>
    <path d="M84.4417 231.358C87.7438 231.358 90.4206 228.681 90.4206 225.379C90.4206 222.077 87.7438 219.4 84.4417 219.4C81.1397 219.4 78.4629 222.077 78.4629 225.379C78.4629 228.681 81.1397 231.358 84.4417 231.358Z" fill="white" stroke="#17154B" stroke-width="3.2" stroke-miterlimit="10" stroke-linecap="round" stroke-linejoin="round"/>
    <path d="M161.086 174.807C164.388 174.807 167.065 172.13 167.065 168.828C167.065 165.526 164.388 162.849 161.086 162.849C157.784 162.849 155.107 165.526 155.107 168.828C155.107 172.13 157.784 174.807 161.086 174.807Z" fill="white" stroke="#17154B" stroke-width="3.2" stroke-miterlimit="10" stroke-linecap="round" stroke-linejoin="round"/>
    <path d="M161.086 28.5577C164.388 28.5577 167.065 25.8809 167.065 22.5788C167.065 19.2768 164.388 16.6 161.086 16.6C157.784 16.6 155.107 19.2768 155.107 22.5788C155.107 25.8809 157.784 28.5577 161.086 28.5577Z" fill="white" stroke="#17154B" stroke-width="3.2" stroke-miterlimit="10" stroke-linecap="round" stroke-linejoin="round"/>
    <path d="M237.717 118.156C241.019 118.156 243.696 115.479 243.696 112.177C243.696 108.875 241.019 106.198 237.717 106.198C234.415 106.198 231.738 108.875 231.738 112.177C231.738 115.479 234.415 118.156 237.717 118.156Z" fill="white" stroke="#17154B" stroke-width="3.2" stroke-miterlimit="10" stroke-linecap="round" stroke-linejoin="round"/>
    <path d="M314.366 165.446C317.668 165.446 320.344 162.769 320.344 159.467C320.344 156.165 317.668 153.488 314.366 153.488C311.064 153.488 308.387 156.165 308.387 159.467C308.387 162.769 311.064 165.446 314.366 165.446Z" fill="white" stroke="#17154B" stroke-width="3.2" stroke-miterlimit="10" stroke-linecap="round" stroke-linejoin="round"/>
    <path d="M391.008 212.357C394.31 212.357 396.987 209.68 396.987 206.378C396.987 203.076 394.31 200.4 391.008 200.4C387.706 200.4 385.029 203.076 385.029 206.378C385.029 209.68 387.706 212.357 391.008 212.357Z" fill="white" stroke="#17154B" stroke-width="3.2" stroke-miterlimit="10" stroke-linecap="round" stroke-linejoin="round"/>
    <path d="M391.008 46.7717C394.31 46.7717 396.987 44.0948 396.987 40.7928C396.987 37.4908 394.31 34.814 391.008 34.814C387.706 34.814 385.029 37.4908 385.029 40.7928C385.029 44.0948 387.706 46.7717 391.008 46.7717Z" fill="white" stroke="#17154B" stroke-width="3.2" stroke-miterlimit="10" stroke-linecap="round" stroke-linejoin="round"/>
    <path d="M467.641 259.373C470.943 259.373 473.62 256.696 473.62 253.394C473.62 250.092 470.943 247.415 467.641 247.415C464.339 247.415 461.662 250.092 461.662 253.394C461.662 256.696 464.339 259.373 467.641 259.373Z" fill="white" stroke="#17154B" stroke-width="3.2" stroke-miterlimit="10" stroke-linecap="round" stroke-linejoin="round"/>
    <path d="M544.289 211.002C547.591 211.002 550.268 208.325 550.268 205.023C550.268 201.721 547.591 199.044 544.289 199.044C540.987 199.044 538.311 201.721 538.311 205.023C538.311 208.325 540.987 211.002 544.289 211.002Z" fill="white" stroke="#17154B" stroke-width="3.2" stroke-miterlimit="10" stroke-linecap="round" stroke-linejoin="round"/>
    <path d="M467.642 1.74072H84.4414V76.7826H467.642V1.74072Z" stroke="#17154B" stroke-width="3.2" stroke-miterlimit="10" stroke-linecap="round" stroke-linejoin="round"/>
    <path d="M84.4414 60.8439H467.642" stroke="#17154B" stroke-width="3.2" stroke-miterlimit="10" stroke-linecap="round" stroke-linejoin="round"/>
    <path d="M84.2804 176.952C96.0872 176.952 105.658 167.381 105.658 155.574C105.658 143.767 96.0872 134.196 84.2804 134.196C72.4736 134.196 62.9023 143.767 62.9023 155.574C62.9023 167.381 72.4736 176.952 84.2804 176.952Z" fill="white" stroke="#F78A7E" stroke-width="3.2" stroke-miterlimit="10" stroke-linecap="round" stroke-linejoin="round"/>
    <path d="M13.1172 353.56H538.979" stroke="#17154B" stroke-width="3.2" stroke-miterlimit="10" stroke-linecap="round" stroke-linejoin="round"/>
    <path d="M84.2793 145.598V165.532" stroke="#F78A7E" stroke-width="3.2" stroke-miterlimit="10" stroke-linecap="round" stroke-linejoin="round"/>
    <path d="M94.241 155.571H74.3066" stroke="#F78A7E" stroke-width="3.2" stroke-miterlimit="10" stroke-linecap="round" stroke-linejoin="round"/>
    <path d="M467.64 213.289C479.447 213.289 489.018 203.718 489.018 191.911C489.018 180.104 479.447 170.533 467.64 170.533C455.833 170.533 446.262 180.104 446.262 191.911C446.262 203.718 455.833 213.289 467.64 213.289Z" fill="white" stroke="#F78A7E" stroke-width="3.2" stroke-miterlimit="10" stroke-linecap="round" stroke-linejoin="round"/>
    <path d="M467.639 181.937V201.872" stroke="#F78A7E" stroke-width="3.2" stroke-miterlimit="10" stroke-linecap="round" stroke-linejoin="round"/>
    <path d="M477.614 191.911H457.68" stroke="#F78A7E" stroke-width="3.2" stroke-miterlimit="10" stroke-linecap="round" stroke-linejoin="round"/>
</svg>
