<svg width="502" height="418" viewBox="0 0 502 418" fill="none" xmlns="http://www.w3.org/2000/svg">
    <g clip-path="url(#clip0_3371_3920)">
        <path fill-rule="evenodd" clip-rule="evenodd" d="M213.46 51.3701H292.23V106.66H188.46V76.3701C188.46 62.5601 199.65 51.3701 213.46 51.3701Z" stroke="#CADFEB" stroke-width="3" stroke-miterlimit="10" stroke-linecap="round" stroke-linejoin="round"/>
        <path d="M396 51.3701H292.23V106.66H396V51.3701Z" stroke="#CADFEB" stroke-width="3" stroke-miterlimit="10" stroke-linecap="round" stroke-linejoin="round"/>
        <path fill-rule="evenodd" clip-rule="evenodd" d="M396 51.3701H474.77C488.58 51.3701 499.77 62.5601 499.77 76.3701V106.66H396V51.3701Z" stroke="#CADFEB" stroke-width="3" stroke-miterlimit="10" stroke-linecap="round" stroke-linejoin="round"/>
        <path d="M292.23 106.67H188.46V161.96H292.23V106.67Z" stroke="#CADFEB" stroke-width="3" stroke-miterlimit="10" stroke-linecap="round" stroke-linejoin="round"/>
        <path d="M396 106.67H292.23V161.96H396V106.67Z" stroke="#CADFEB" stroke-width="3" stroke-miterlimit="10" stroke-linecap="round" stroke-linejoin="round"/>
        <path d="M499.77 106.67H396V161.96H499.77V106.67Z" stroke="#CADFEB" stroke-width="3" stroke-miterlimit="10" stroke-linecap="round" stroke-linejoin="round"/>
        <path d="M292.23 161.96H188.46V217.25H292.23V161.96Z" stroke="#CADFEB" stroke-width="3" stroke-miterlimit="10" stroke-linecap="round" stroke-linejoin="round"/>
        <path d="M396 161.96H292.23V217.25H396V161.96Z" stroke="#CADFEB" stroke-width="3" stroke-miterlimit="10" stroke-linecap="round" stroke-linejoin="round"/>
        <path d="M499.77 161.96H396V217.25H499.77V161.96Z" stroke="#CADFEB" stroke-width="3" stroke-miterlimit="10" stroke-linecap="round" stroke-linejoin="round"/>
        <path fill-rule="evenodd" clip-rule="evenodd" d="M188.46 217.25H292.23V272.54H213.46C199.65 272.54 188.46 261.35 188.46 247.54V217.25V217.25Z" stroke="#CADFEB" stroke-width="3" stroke-miterlimit="10" stroke-linecap="round" stroke-linejoin="round"/>
        <path d="M396 217.25H292.23V272.54H396V217.25Z" stroke="#CADFEB" stroke-width="3" stroke-miterlimit="10" stroke-linecap="round" stroke-linejoin="round"/>
        <path fill-rule="evenodd" clip-rule="evenodd" d="M396 217.25H499.77V247.54C499.77 261.35 488.58 272.54 474.77 272.54H396V217.25Z" stroke="#CADFEB" stroke-width="3" stroke-miterlimit="10" stroke-linecap="round" stroke-linejoin="round"/>
        <path d="M192.42 302.6H140.42V354.6H192.42V302.6Z" fill="white" stroke="#00B2C8" stroke-width="3" stroke-miterlimit="10" stroke-linecap="round" stroke-linejoin="round"/>
        <path d="M140.42 354.6H88.4199V406.6H140.42V354.6Z" fill="white" stroke="#00B2C8" stroke-width="3" stroke-miterlimit="10" stroke-linecap="round" stroke-linejoin="round"/>
        <path d="M88.4202 322.1H55.9302V354.59H88.4202V322.1Z" fill="white" stroke="#17154B" stroke-width="3" stroke-miterlimit="10" stroke-linecap="round" stroke-linejoin="round"/>
        <path fill-rule="evenodd" clip-rule="evenodd" d="M72.1698 331.48C75.9698 331.48 79.0398 334.56 79.0398 338.35C79.0398 342.15 75.9598 345.22 72.1698 345.22C68.3698 345.22 65.2998 342.14 65.2998 338.35C65.2998 334.55 68.3798 331.48 72.1698 331.48Z" fill="white" stroke="#F78A7E" stroke-width="3" stroke-miterlimit="10" stroke-linecap="round" stroke-linejoin="round"/>
        <path d="M55.95 150.07L60.65 139.69C57.06 141.4 54.74 141.54 51.21 139.69L55.95 150.07Z" fill="#17154B" stroke="#17154B" stroke-width="3" stroke-miterlimit="10" stroke-linecap="round" stroke-linejoin="round"/>
        <path d="M55.9302 70.6299V141.02" stroke="#17154B" stroke-width="3" stroke-miterlimit="10" stroke-linecap="round" stroke-linejoin="round"/>
        <path d="M154.88 50.7898L144.5 46.0898C146.21 49.6798 146.35 51.9998 144.5 55.5298L154.88 50.7898Z" fill="#17154B" stroke="#17154B" stroke-width="3" stroke-miterlimit="10" stroke-linecap="round" stroke-linejoin="round"/>
        <path d="M75.4297 50.8101H145.83" stroke="#17154B" stroke-width="3" stroke-miterlimit="10" stroke-linecap="round" stroke-linejoin="round"/>
        <path d="M55.9299 70.3198C66.705 70.3198 75.4399 61.5849 75.4399 50.8098C75.4399 40.0347 66.705 31.2998 55.9299 31.2998C45.1548 31.2998 36.4199 40.0347 36.4199 50.8098C36.4199 61.5849 45.1548 70.3198 55.9299 70.3198Z" fill="white" stroke="#17154B" stroke-width="3" stroke-miterlimit="10" stroke-linecap="round" stroke-linejoin="round"/>
        <path d="M55.9302 59.41V42.21" stroke="#17154B" stroke-width="3" stroke-miterlimit="10" stroke-linecap="round" stroke-linejoin="round"/>
        <path d="M47.3301 50.8101H64.5301" stroke="#17154B" stroke-width="3" stroke-miterlimit="10" stroke-linecap="round" stroke-linejoin="round"/>
        <path d="M240.34 158.32L292.23 106.67L396 217.25L477.97 70.6001" stroke="#F78A7E" stroke-width="3" stroke-miterlimit="10" stroke-linecap="round" stroke-linejoin="round"/>
        <path d="M481.04 66.3101L471.54 72.6001C475.49 73.0701 477.53 74.1801 479.53 77.6201L481.04 66.3101Z" fill="#F78A7E" stroke="#F78A7E" stroke-width="3" stroke-miterlimit="10" stroke-linecap="round" stroke-linejoin="round"/>
        <path d="M396 406.57L385.62 401.87C387.33 405.46 387.47 407.78 385.62 411.31L396 406.57Z" fill="#17154B" stroke="#17154B" stroke-width="3" stroke-miterlimit="10" stroke-linecap="round" stroke-linejoin="round"/>
        <path d="M192.42 406.6H386.96" stroke="#17154B" stroke-width="3" stroke-miterlimit="10" stroke-linecap="round" stroke-linejoin="round"/>
        <path d="M396 224.46C399.982 224.46 403.21 221.232 403.21 217.25C403.21 213.268 399.982 210.04 396 210.04C392.018 210.04 388.79 213.268 388.79 217.25C388.79 221.232 392.018 224.46 396 224.46Z" fill="white" stroke="#F78A7E" stroke-width="3" stroke-miterlimit="10" stroke-linecap="round" stroke-linejoin="round"/>
        <path d="M292.23 113.88C296.212 113.88 299.44 110.652 299.44 106.67C299.44 102.688 296.212 99.46 292.23 99.46C288.248 99.46 285.02 102.688 285.02 106.67C285.02 110.652 288.248 113.88 292.23 113.88Z" fill="white" stroke="#F78A7E" stroke-width="3" stroke-miterlimit="10" stroke-linecap="round" stroke-linejoin="round"/>
        <path d="M447.89 415.85V272.55" stroke="#17154B" stroke-width="3" stroke-miterlimit="10" stroke-linecap="round" stroke-linejoin="round"/>
        <path d="M457.394 379.851V360.851H438.394V379.851H457.394Z" fill="white" stroke="#F78A7E" stroke-width="3" stroke-miterlimit="10" stroke-linecap="round" stroke-linejoin="round"/>
        <path d="M457.394 415.851V396.851H438.394V415.851H457.394Z" fill="white" stroke="#17154B" stroke-width="3" stroke-miterlimit="10" stroke-linecap="round" stroke-linejoin="round"/>
        <path d="M457.394 343.851V324.851H438.394V343.851H457.394Z" fill="white" stroke="#17154B" stroke-width="3" stroke-miterlimit="10" stroke-linecap="round" stroke-linejoin="round"/>
        <path d="M166.84 311.76H169.32V315.22C169.99 315.38 170.62 315.61 171.21 315.9C171.81 316.19 172.32 316.55 172.75 317C173.18 317.45 173.52 317.97 173.78 318.57C174.03 319.17 174.16 319.87 174.16 320.67C174.16 322.07 173.76 323.27 172.96 324.28C172.16 325.29 171.05 326.01 169.62 326.44V326.51C170.45 326.61 171.21 326.83 171.89 327.16C172.57 327.49 173.15 327.91 173.63 328.43C174.11 328.95 174.48 329.55 174.74 330.24C175 330.93 175.13 331.68 175.13 332.5C175.13 333.42 174.98 334.26 174.7 335.03C174.42 335.8 174.01 336.49 173.5 337.09C172.99 337.69 172.38 338.2 171.66 338.61C170.95 339.03 170.17 339.33 169.32 339.53V343.37H166.84V339.75H165.16V343.37H162.85V339.75H159.61V314.91H162.85V311.76H165.16V314.91H166.42H166.84V311.76V311.76ZM163.5 318.22V325.29H165.58C166.28 325.29 166.91 325.24 167.47 325.12C168.02 325 168.49 324.8 168.88 324.5C169.26 324.2 169.56 323.81 169.76 323.32C169.96 322.83 170.06 322.2 170.06 321.44C170.06 321.02 170.01 320.62 169.89 320.22C169.78 319.83 169.58 319.48 169.29 319.19C168.99 318.89 168.6 318.66 168.09 318.48C167.59 318.3 166.95 318.21 166.18 318.21H163.5V318.22ZM163.5 328.6V336.46H165.94C166.69 336.46 167.38 336.4 168 336.28C168.62 336.16 169.16 335.95 169.61 335.64C170.06 335.34 170.41 334.92 170.66 334.4C170.91 333.88 171.04 333.23 171.04 332.44C171.04 331.9 170.97 331.39 170.83 330.92C170.69 330.45 170.45 330.05 170.09 329.7C169.74 329.35 169.27 329.08 168.67 328.88C168.08 328.69 167.32 328.59 166.41 328.59H163.5V328.6Z" fill="#00B2C8"/>
        <path d="M124.83 377.33V380.5H121.15L122.15 383.86H124.83V387.03H123.07L125.32 394.62H120.22L118.32 387.03H110.44L108.6 394.62H103.52L105.79 387.03H104.01V383.86H106.71L107.71 380.5H104.01V377.33H108.64L111.85 366.58H117.09L120.26 377.33H124.83ZM111.19 383.86H117.56L116.74 380.5H112.01L111.19 383.86ZM114.41 370.8H114.31C114.23 371.49 114.13 372.03 114.02 372.42L112.75 377.33H115.98L114.71 372.42C114.61 372.08 114.52 371.54 114.41 370.8Z" fill="#00B2C8"/>
        <path fill-rule="evenodd" clip-rule="evenodd" d="M188.42 147.49C118.3 147.49 61.2102 203.21 58.9902 272.79H110.83C113.01 231.83 146.91 199.29 188.42 199.29C231.33 199.29 266.12 234.08 266.12 276.99C266.12 318.56 233.47 352.51 192.42 354.59V406.43C262.09 404.31 317.92 347.18 317.92 276.99C317.92 205.47 259.94 147.49 188.42 147.49Z" fill="white" stroke="#00B2C8" stroke-width="3" stroke-miterlimit="10" stroke-linecap="round" stroke-linejoin="round"/>
        <path d="M193.98 380.64C248.73 377.76 292.23 332.46 292.23 276.99C292.23 219.66 245.76 173.19 188.43 173.19C132.57 173.19 87.0202 217.31 84.7202 272.61" stroke="#CADFEB" stroke-width="3" stroke-miterlimit="10" stroke-linecap="round" stroke-linejoin="round"/>
        <path d="M415.75 12.04C418.661 12.04 421.02 9.68054 421.02 6.77C421.02 3.85946 418.661 1.5 415.75 1.5C412.839 1.5 410.48 3.85946 410.48 6.77C410.48 9.68054 412.839 12.04 415.75 12.04Z" fill="white" stroke="#17154B" stroke-width="3" stroke-miterlimit="10" stroke-linecap="round" stroke-linejoin="round"/>
        <path d="M447.89 12.04C450.801 12.04 453.16 9.68054 453.16 6.77C453.16 3.85946 450.801 1.5 447.89 1.5C444.98 1.5 442.62 3.85946 442.62 6.77C442.62 9.68054 444.98 12.04 447.89 12.04Z" fill="white" stroke="#17154B" stroke-width="3" stroke-miterlimit="10" stroke-linecap="round" stroke-linejoin="round"/>
        <path d="M480.03 12.04C482.94 12.04 485.3 9.68054 485.3 6.77C485.3 3.85946 482.94 1.5 480.03 1.5C477.119 1.5 474.76 3.85946 474.76 6.77C474.76 9.68054 477.119 12.04 480.03 12.04Z" stroke="#00B2C8" stroke-width="3" stroke-miterlimit="10" stroke-linecap="round" stroke-linejoin="round"/>
        <path d="M6.22021 275.34V406.6" stroke="#00B2C8" stroke-width="3" stroke-miterlimit="10" stroke-linecap="round" stroke-linejoin="round"/>
        <path d="M6.2 267.86L1.5 278.24C5.09 276.53 7.41 276.39 10.94 278.24L6.2 267.86Z" fill="#00B2C8" stroke="#00B2C8" stroke-width="3" stroke-miterlimit="10" stroke-linecap="round" stroke-linejoin="round"/>
        <path d="M58.9902 272.8H110.83" stroke="#00B2C8" stroke-width="3" stroke-miterlimit="10" stroke-linecap="round" stroke-linejoin="round"/>
        <path d="M192.42 354.59V406.43" stroke="#00B2C8" stroke-width="3" stroke-miterlimit="10" stroke-linecap="round" stroke-linejoin="round"/>
        <path d="M241.45 375.22C246.244 375.22 250.13 371.334 250.13 366.54C250.13 361.746 246.244 357.86 241.45 357.86C236.656 357.86 232.77 361.746 232.77 366.54C232.77 371.334 236.656 375.22 241.45 375.22Z" stroke="#CADFEB" stroke-width="3" stroke-miterlimit="10" stroke-linecap="round" stroke-linejoin="round"/>
        <path d="M292.23 281.23C297.024 281.23 300.91 277.344 300.91 272.55C300.91 267.756 297.024 263.87 292.23 263.87C287.436 263.87 283.55 267.756 283.55 272.55C283.55 277.344 287.436 281.23 292.23 281.23Z" stroke="#CADFEB" stroke-width="3" stroke-miterlimit="10" stroke-linecap="round" stroke-linejoin="round"/>
        <path d="M97.0999 234.62C101.894 234.62 105.78 230.734 105.78 225.94C105.78 221.146 101.894 217.26 97.0999 217.26C92.3061 217.26 88.4199 221.146 88.4199 225.94C88.4199 230.734 92.3061 234.62 97.0999 234.62Z" stroke="#CADFEB" stroke-width="3" stroke-miterlimit="10" stroke-linecap="round" stroke-linejoin="round"/>
        <path d="M188.46 181.86C193.254 181.86 197.14 177.974 197.14 173.18C197.14 168.386 193.254 164.5 188.46 164.5C183.666 164.5 179.78 168.386 179.78 173.18C179.78 177.974 183.666 181.86 188.46 181.86Z" stroke="#CADFEB" stroke-width="3" stroke-miterlimit="10" stroke-linecap="round" stroke-linejoin="round"/>
        <path d="M447.89 366.55V374.15" stroke="#F78A7E" stroke-width="3" stroke-miterlimit="10" stroke-linecap="round" stroke-linejoin="round"/>
        <path d="M451.69 370.35H444.09" stroke="#F78A7E" stroke-width="3" stroke-miterlimit="10" stroke-linecap="round" stroke-linejoin="round"/>
        <path d="M351.477 352.299C353.923 350.996 354.85 347.955 353.546 345.509C352.243 343.062 349.203 342.135 346.756 343.439C344.309 344.743 343.382 347.783 344.686 350.229C345.99 352.676 349.03 353.603 351.477 352.299Z" fill="white" stroke="#00B2C8" stroke-width="3" stroke-miterlimit="10" stroke-linecap="round" stroke-linejoin="round"/>
        <path d="M382.915 352.3C385.362 350.997 386.288 347.956 384.985 345.51C383.681 343.063 380.641 342.136 378.194 343.44C375.748 344.744 374.821 347.784 376.125 350.23C377.428 352.677 380.468 353.604 382.915 352.3Z" stroke="#CADFEB" stroke-width="3" stroke-miterlimit="10" stroke-linecap="round" stroke-linejoin="round"/>
        <path d="M351.478 325.25C353.925 323.947 354.851 320.907 353.548 318.46C352.244 316.013 349.204 315.086 346.757 316.39C344.311 317.694 343.384 320.734 344.688 323.181C345.991 325.627 349.031 326.554 351.478 325.25Z" stroke="#CADFEB" stroke-width="3" stroke-miterlimit="10" stroke-linecap="round" stroke-linejoin="round"/>
        <path d="M382.917 325.251C385.363 323.947 386.29 320.907 384.986 318.46C383.683 316.014 380.642 315.087 378.196 316.391C375.749 317.694 374.822 320.734 376.126 323.181C377.43 325.628 380.47 326.555 382.917 325.251Z" fill="white" stroke="#17154B" stroke-width="3" stroke-miterlimit="10" stroke-linecap="round" stroke-linejoin="round"/>
        <path d="M320.39 65.1201H307.48V78.0301H320.39V65.1201Z" fill="white" stroke="#CADFEB" stroke-width="3" stroke-miterlimit="10" stroke-linecap="round" stroke-linejoin="round"/>
        <path d="M380.76 80H331.91V92.91H380.76V80Z" fill="white" stroke="#CADFEB" stroke-width="3" stroke-miterlimit="10" stroke-linecap="round" stroke-linejoin="round"/>
        <path d="M463.73 238.44H432.05V251.35H463.73V238.44Z" fill="white" stroke="#CADFEB" stroke-width="3" stroke-miterlimit="10" stroke-linecap="round" stroke-linejoin="round"/>
    </g>
    <defs>
        <clipPath id="clip0_3371_3920">
            <rect width="501.28" height="417.35" fill="white"/>
        </clipPath>
    </defs>
</svg>
